<?xml version="1.0" encoding="UTF-8" standalone="no"?>
<!-- Created with Inkscape (http://www.inkscape.org/) -->

<svg
   version="1.1"
   id="svg2"
   width="1440"
   height="1440"
   viewBox="0 0 1440 1440"
   sodipodi:docname="Biodiversity Net Gain for Kent and Medway Logo_Image only.eps"
   xmlns:inkscape="http://www.inkscape.org/namespaces/inkscape"
   xmlns:sodipodi="http://sodipodi.sourceforge.net/DTD/sodipodi-0.dtd"
   xmlns="http://www.w3.org/2000/svg"
   xmlns:svg="http://www.w3.org/2000/svg">
  <defs
     id="defs6" />
  <sodipodi:namedview
     id="namedview4"
     pagecolor="#ffffff"
     bordercolor="#000000"
     borderopacity="0.25"
     inkscape:showpageshadow="2"
     inkscape:pageopacity="0.0"
     inkscape:pagecheckerboard="0"
     inkscape:deskcolor="#d1d1d1" />
  <g
     id="g8"
     inkscape:groupmode="layer"
     inkscape:label="ink_ext_XXXXXX"
     transform="matrix(1.3333333,0,0,-1.3333333,0,1440)">
    <g
       id="g10"
       transform="scale(0.1)">
      <g
         id="g12"
         transform="scale(10)" />
      <path
         d="M 745.855,5658.3 H 5160.28 v 4414.4 H 745.855 V 5658.3"
         style="fill:#447165;fill-opacity:1;fill-rule:nonzero;stroke:none"
         id="path14" />
      <path
         d="M 10054.1,5658.3 H 5639.72 v 4414.4 H 10054.1 V 5658.3"
         style="fill:#b0c0c0;fill-opacity:1;fill-rule:nonzero;stroke:none"
         id="path16" />
      <path
         d="M 745.855,734.102 H 5160.28 V 5148.48 H 745.855 V 734.102"
         style="fill:#722c33;fill-opacity:1;fill-rule:nonzero;stroke:none"
         id="path18" />
      <path
         d="M 10054.1,727.301 H 5639.72 V 5141.69 H 10054.1 V 727.301"
         style="fill:#18374b;fill-opacity:1;fill-rule:nonzero;stroke:none"
         id="path20" />
      <path
         d="m 1401.91,4035.38 c 0,0 74.44,127.1 178.86,144.11 104.41,17.02 198.3,-70.59 209.54,-195.77 m 368.03,174.91 c 0,0 -94.89,99.45 -199.31,82.44 -104.51,-17.02 -179.96,-132.17 -168.72,-257.35"
         style="fill:none;stroke:#ffffff;stroke-width:50.638;stroke-linecap:round;stroke-linejoin:round;stroke-miterlimit:10;stroke-dasharray:none;stroke-opacity:1"
         id="path22" />
      <path
         d="m 3677.21,4368.16 c 0,0 118.9,145.33 253.5,134.9 134.59,-10.43 234.96,-156.47 224.12,-326.31 m 497.16,116.06 c 0,0 -99.25,162.14 -233.84,172.57 -134.7,10.43 -252.48,-118.79 -263.32,-288.63"
         style="fill:none;stroke:#ffffff;stroke-width:50.638;stroke-linecap:round;stroke-linejoin:round;stroke-miterlimit:10;stroke-dasharray:none;stroke-opacity:1"
         id="path24" />
      <path
         d="m 8929.07,6525.94 h -315.88 v -310.01 h 315.88 z m 0,633.98 h -315.88 v -318.71 h 315.88 z m -315.88,-633.98 h -631.87 v -310.01 h 631.87 z m -631.87,0 h -631.86 v -310.01 h 631.86 z m 947.75,315.27 h -631.76 v -315.17 h 631.76 z m -631.76,0 h -631.87 v -315.17 h 631.87 z m 315.88,318.71 h -631.87 v -318.71 h 631.87 z m 315.88,317 h -631.76 v -316.99 h 631.76 z m -455.85,738.3 v 314.06 h 367.23 v -583.25 m 87.2,-438.93 V 6214.51 H 6766.21 V 7507.1 m -182.9,250.25 v -245.59 h 210.65 l 1052.97,763.01 1031.5,-763.01 h 232.22 v 232.93 l -1263.72,941.67 z"
         style="fill:none;stroke:#18374b;stroke-width:50.638;stroke-linecap:round;stroke-linejoin:round;stroke-miterlimit:10;stroke-dasharray:none;stroke-opacity:1"
         id="path26" />
      <path
         d="M 6136.34,6214.48 H 9557.55"
         style="fill:none;stroke:#18374b;stroke-width:50.638;stroke-linecap:round;stroke-linejoin:round;stroke-miterlimit:10;stroke-dasharray:none;stroke-opacity:1"
         id="path28" />
      <path
         d="m 3403.35,2528.74 c 88.92,-28.36 237.9,-375.02 -38.89,-593.07 -276.79,-218.05 -490.88,43.45 -490.88,43.45 0,0 -245.6,-228.79 -514.39,0.3 -268.78,229.19 -9.61,495.95 -9.61,495.95 0,0 -71.81,84.56 -57.93,306.56 13.97,222.1 201.64,284.49 201.64,284.49 0,0 2.02,405.91 383.12,417.05 381,11.14 336.34,-394.77 336.34,-394.77 0,0 193.03,-117.38 221.19,-291.78 26.03,-161.33 -30.59,-268.18 -30.59,-268.18"
         style="fill:#722c33;fill-opacity:1;fill-rule:nonzero;stroke:none"
         id="path30" />
      <path
         d="m 3403.35,2528.74 c 88.92,-28.36 237.9,-375.02 -38.89,-593.07 -276.79,-218.05 -490.88,43.45 -490.88,43.45 0,0 -245.6,-228.79 -514.39,0.3 -268.78,229.19 -9.61,495.95 -9.61,495.95 0,0 -71.81,84.56 -57.93,306.56 13.97,222.1 201.64,284.49 201.64,284.49 0,0 2.02,405.91 383.12,417.05 381,11.14 336.34,-394.77 336.34,-394.77 0,0 193.03,-117.38 221.19,-291.78 26.03,-161.33 -30.59,-268.18 -30.59,-268.18 z"
         style="fill:none;stroke:#ffffff;stroke-width:50.638;stroke-linecap:round;stroke-linejoin:round;stroke-miterlimit:10;stroke-dasharray:none;stroke-opacity:1"
         id="path32" />
      <path
         d="m 1771.38,3483.5 c 0,0 -617.38,-297.65 -630.14,-968.91 -12.76,-671.25 605.83,-712.98 605.83,-712.98 0,0 670.55,30.79 607.25,761.09 -63.19,730.3 -582.94,920.8 -582.94,920.8"
         style="fill:#722c33;fill-opacity:1;fill-rule:nonzero;stroke:none"
         id="path34" />
      <path
         d="m 1771.38,3483.5 c 0,0 -617.38,-297.65 -630.14,-968.91 -12.76,-671.25 605.83,-712.98 605.83,-712.98 0,0 670.55,30.79 607.25,761.09 -63.19,730.3 -582.94,920.8 -582.94,920.8 z"
         style="fill:none;stroke:#ffffff;stroke-width:50.638;stroke-linecap:round;stroke-linejoin:round;stroke-miterlimit:10;stroke-dasharray:none;stroke-opacity:1"
         id="path36" />
      <path
         d="m 3519.34,2741.3 c 0,0 -230.91,-89.93 -228.27,-370.47 2.53,-280.63 224.32,-602.08 722.3,-588.51 497.97,13.67 751.67,259.06 751.67,522.38 0,150.9 -41.12,376.64 -279.93,469.31 0,0 -40.71,372.09 -210.45,386.17 0,0 1.82,373.4 -261.29,381.81 -263.12,8.4 -261.29,-382.42 -261.29,-382.42 0,0 -238,-102.29 -232.74,-418.27"
         style="fill:#722c33;fill-opacity:1;fill-rule:nonzero;stroke:none"
         id="path38" />
      <path
         d="m 3519.34,2741.3 c 0,0 -230.91,-89.93 -228.27,-370.47 2.53,-280.63 224.32,-602.08 722.3,-588.51 497.97,13.67 751.67,259.06 751.67,522.38 0,150.9 -41.12,376.64 -279.93,469.31 0,0 -40.71,372.09 -210.45,386.17 0,0 1.82,373.4 -261.29,381.81 -263.12,8.4 -261.29,-382.42 -261.29,-382.42 0,0 -238,-102.29 -232.74,-418.27 z"
         style="fill:none;stroke:#ffffff;stroke-width:50.638;stroke-linecap:round;stroke-linejoin:round;stroke-miterlimit:10;stroke-dasharray:none;stroke-opacity:1"
         id="path40" />
      <path
         d="m 1741,2755.25 -0.51,-1391.74 M 2873.87,2565.76 V 1363.51 m 1161.64,731.01 v -731.01 m -2671.46,1134.19 376.44,-384.34 377.46,384.34 m -782.26,-192.83 206.3,0.71 2.33,222.4 m 387.58,0 v -222.4 l 208.63,-0.71 m 1747.52,-287.93 144.32,-129.33 150.7,129.33 m -1519.45,317.91 210.25,-214 215.82,214"
         style="fill:none;stroke:#ffffff;stroke-width:50.638;stroke-linecap:round;stroke-linejoin:round;stroke-miterlimit:10;stroke-dasharray:none;stroke-opacity:1"
         id="path42" />
      <path
         d="M 1253.07,1339.24 H 4655.13"
         style="fill:none;stroke:#ffffff;stroke-width:50.638;stroke-linecap:round;stroke-linejoin:round;stroke-miterlimit:10;stroke-dasharray:none;stroke-opacity:1"
         id="path44" />
      <path
         d="m 7119.1,9006.35 c -14.99,45.37 9.32,94.49 54.49,109.58 45.07,15.19 93.78,-9.42 108.87,-54.79 m -62.89,60.26 15.29,37.98 m -104.52,-75.96 -40.71,22.79 m 192.83,-45.07 c 0,0 145.13,39.9 194.55,190.2 20.76,54.79 208.63,302.41 453.21,104.21 -47.9,-18.23 -141.08,-56.11 -140.47,-162.35 -67.35,-5.16 -156.67,-28.66 -142.49,-182.5 -97.84,2.03 -273.25,-48.2 -302.72,-203.66 1.52,-34.23 -40.51,-115.76 -129.84,-54.39 -89.32,61.27 -170.95,131.76 -361.96,-14.88 -42.73,63.9 -76.36,159.1 -214.29,73.72 -46.09,61.18 -123.66,73.73 -217.55,37.88 -7.69,47.91 132.17,324.69 384.04,202.65 0,0 190.2,-94.89 314.16,-45.67 m 274.15,-248.33 -45.97,32 m -126.4,-109.98 15.7,55.7"
         style="fill:none;stroke:#18374b;stroke-width:42.8398;stroke-linecap:round;stroke-linejoin:round;stroke-miterlimit:10;stroke-dasharray:none;stroke-opacity:1"
         id="path46" />
      <path
         d="m 7228.16,8751.34 c 0,0 -101.78,148.16 -109.07,250.65"
         style="fill:none;stroke:#18374b;stroke-width:42.8398;stroke-linecap:round;stroke-linejoin:round;stroke-miterlimit:10;stroke-dasharray:none;stroke-opacity:1"
         id="path48" />
      <path
         d="m 7283.67,9055.62 c 27.96,-34.43 60.77,-262.3 60.77,-262.3"
         style="fill:none;stroke:#18374b;stroke-width:42.8398;stroke-linecap:round;stroke-linejoin:round;stroke-miterlimit:10;stroke-dasharray:none;stroke-opacity:1"
         id="path50" />
      <path
         d="m 7243.09,2376.83 c -2.02,-14.99 -3.14,-30.49 -3.14,-46.18 0,-78.8 26.94,-149.59 69.68,-198.61 84.57,41.32 160.42,113.33 222.4,207.21 -100.46,152.42 -237.69,246.51 -389.1,246.51 -209.24,0 -374.32,-204.37 -374.32,-204.37 l -169.63,104.31 43.04,-146.45 -43.04,-146.44 m 0,0 169.63,104.41 c 0,0 159.11,-204.47 374.32,-204.47 11.24,0 40.1,1.52 64.11,6.18"
         style="fill:none;stroke:#ffffff;stroke-width:50.638;stroke-linecap:round;stroke-linejoin:round;stroke-miterlimit:10;stroke-dasharray:none;stroke-opacity:1"
         id="path52" />
      <path
         d="m 8588.1,1850.45 c -2.74,-20.26 -4.15,-41.02 -4.15,-62.29 0,-105.93 35.85,-201.34 92.97,-267.37 112.82,55.6 214,152.52 296.64,279.12 -133.99,205.28 -317.1,331.98 -519.05,331.98 -279.21,0 -499.49,-275.37 -499.49,-275.37 l -226.25,140.57 57.53,-197.18 -57.53,-197.29 m 0,0 226.25,140.57 c 0,0 212.28,-275.26 499.49,-275.26 14.99,0 53.38,1.92 85.48,8.2"
         style="fill:none;stroke:#ffffff;stroke-width:50.638;stroke-linecap:round;stroke-linejoin:round;stroke-miterlimit:10;stroke-dasharray:none;stroke-opacity:1"
         id="path54" />
      <path
         d="M 9557.57,2989.89 H 6136.36 m 2722.5,0 c 35.65,1100.27 698.71,1171.87 698.71,1171.87 -430.23,-153.03 -388.2,-1171.87 -388.2,-1171.87 m -543.34,0 c 0,0 6.48,852.85 310.51,1015.6 0,0 -194.05,-387.38 -77.68,-1015.6 m -155.25,1640.57 c 0,0 -174.6,-572.92 -77.58,-1640.57"
         style="fill:none;stroke:#ffffff;stroke-width:50.638;stroke-linecap:round;stroke-linejoin:round;stroke-miterlimit:10;stroke-dasharray:none;stroke-opacity:1"
         id="path56" />
      <path
         d="m 8757.74,4430.98 c 10.93,54.38 -18.54,108.67 -65.83,121.23 -47.3,12.56 -94.5,-21.37 -105.43,-75.76 l -32.92,-164.27 c -10.94,-54.38 18.54,-108.67 65.83,-121.22 47.3,-12.56 94.49,21.36 105.33,75.75 l 33.02,164.27"
         style="fill:#18374b;fill-opacity:1;fill-rule:nonzero;stroke:none"
         id="path58" />
      <path
         d="m 8757.74,4430.98 c 10.93,54.38 -18.54,108.67 -65.83,121.23 -47.3,12.56 -94.5,-21.37 -105.43,-75.76 l -32.92,-164.27 c -10.94,-54.38 18.54,-108.67 65.83,-121.22 47.3,-12.56 94.49,21.36 105.33,75.75 z"
         style="fill:none;stroke:#ffffff;stroke-width:50.638;stroke-linecap:round;stroke-linejoin:round;stroke-miterlimit:10;stroke-dasharray:none;stroke-opacity:1"
         id="path60" />
      <path
         d="m 6470.93,2989.89 c 0,0 35.35,824.9 -326.61,948.76 0,0 558.03,-57.93 587.9,-948.76 m 196.08,0 c 0,0 -5.47,690.5 -261.4,822.26 0,0 163.36,-313.65 65.32,-822.26 m 196.08,0 C 7061.07,4082.26 6666.9,4403 6666.9,4403"
         style="fill:none;stroke:#ffffff;stroke-width:50.638;stroke-linecap:round;stroke-linejoin:round;stroke-miterlimit:10;stroke-dasharray:none;stroke-opacity:1"
         id="path62" />
      <path
         d="m 6827.75,4270.67 c -23.5,48.61 -76.97,66.23 -119.3,39.3 -42.44,-27.05 -57.73,-88.32 -34.24,-136.93 l 71,-146.85 c 23.5,-48.61 76.87,-66.23 119.3,-39.3 42.44,26.94 57.73,88.22 34.23,136.93 l -70.99,146.85"
         style="fill:#18374b;fill-opacity:1;fill-rule:nonzero;stroke:none"
         id="path64" />
      <path
         d="m 6827.75,4270.67 c -23.5,48.61 -76.97,66.23 -119.3,39.3 -42.44,-27.05 -57.73,-88.32 -34.24,-136.93 l 71,-146.85 c 23.5,-48.61 76.87,-66.23 119.3,-39.3 42.44,26.94 57.73,88.22 34.23,136.93 z"
         style="fill:none;stroke:#ffffff;stroke-width:50.638;stroke-linecap:round;stroke-linejoin:round;stroke-miterlimit:10;stroke-dasharray:none;stroke-opacity:1"
         id="path66" />
      <path
         d="m 7342.67,3018.05 c 0,0 -22.08,502.02 204.17,577.47 0,0 -348.8,-35.34 -367.53,-577.47 m -122.44,0 c 0,0 3.44,420.29 163.35,500.4 0,0 -102.08,-190.8 -40.91,-500.4"
         style="fill:none;stroke:#ffffff;stroke-width:50.638;stroke-linecap:round;stroke-linejoin:round;stroke-miterlimit:10;stroke-dasharray:none;stroke-opacity:1"
         id="path68" />
      <path
         d="m 8420.84,2989.89 c 0,0 22.18,502.03 -204.37,577.48 0,0 349.09,-35.35 367.83,-577.48"
         style="fill:none;stroke:#ffffff;stroke-width:50.638;stroke-linecap:round;stroke-linejoin:round;stroke-miterlimit:10;stroke-dasharray:none;stroke-opacity:1"
         id="path70" />
      <path
         d="m 2411.24,8982.64 c -75.65,98.95 -221.89,265.55 -403.48,287.73 -261.3,31.9 -242.56,-132.17 -164.88,-180.88 77.78,-48.82 170.14,-200.33 189.69,-249.04 28.76,-71.5 78.29,11.34 305.04,53.07 m -308.28,-149.28 c 0,0 -128.22,-230.1 16.91,-249.85 145.13,-19.85 163.46,-57.63 139.86,-116.37 -13.77,-34.33 -45.67,-88.21 -69.67,-127.1 -14.79,-23.8 -2.23,-54.89 25.01,-61.98 20.86,-5.47 42.44,5.47 50.23,25.42 27.65,70.79 97.33,234.96 194.46,365 m 117.07,417.76 c 41.22,117.48 129.03,321.15 294.92,398.42 238.5,111.1 271.42,-50.74 212.57,-121.12 -58.84,-70.39 -99.85,-243.07 -103.4,-295.43 -5.37,-76.96 -78.29,-13.16 -307.47,-43.85 m 340.29,-46.69 c 0,0 193.03,-179.15 61.06,-242.86 -131.86,-63.6 -137.63,-105.32 -97.02,-153.83 23.7,-28.36 70.69,-69.78 105.53,-99.36 21.37,-18.12 19.04,-51.55 -4.66,-66.74 -18.13,-11.54 -42.03,-7.8 -55.6,8.71 -48.61,59.45 -164.47,193.14 -298.86,286.92 m -155.06,781.55 v 0 c -25.42,-4.06 -44.86,-24.51 -47.39,-49.83 l -21.27,-181.69 -73.12,166.7 c -10.23,23.29 -35.15,36.76 -60.47,32.81 m 248.43,-914.01 v 0 c -29.67,-4.66 -57.42,15.79 -61.16,45.27 l -43.76,325.6 c -2.63,20.15 2.53,40.61 14.59,57.22 l 12.45,17.22 -14.18,10.53 c -17.42,12.96 -28.86,32.41 -31.59,53.88 l -20.46,164.17 c -2.53,19.64 11.14,37.77 30.89,40.91 19.75,3.04 38.38,-9.92 42.03,-29.37 l 31.19,-162.55 c 3.95,-21.16 -0.81,-43.14 -13.37,-60.86 l -10.13,-14.49 17.12,-12.45 c 16.61,-12.16 27.95,-29.98 31.7,-50.03 l 58.84,-323.07 c 5.47,-29.27 -14.48,-57.22 -44.16,-61.98 z"
         style="fill:none;stroke:#ffffff;stroke-width:50.638;stroke-linecap:round;stroke-linejoin:round;stroke-miterlimit:10;stroke-dasharray:none;stroke-opacity:1"
         id="path72" />
      <path
         d="m 3569.68,8713.26 c 4.56,8 9.21,15.19 13.87,21.67 30.08,42.13 63.4,56.11 90.24,59.25 19.04,2.12 34.74,-1.12 44.26,-3.85 9.52,-2.74 24.51,-8.31 39.49,-20.26 21.17,-16.91 42.04,-46.48 45.18,-98.13 0.6,-7.9 0.7,-16.51 0.4,-25.73 m -11.14,-70.99 c -1.42,-6.18 -3.04,-12.36 -4.86,-18.74 -2.94,-10.23 -5.77,-19.75 -8.91,-28.96 -56.92,-172.58 -134.2,-174.5 -181.39,-160.93 -47.2,13.57 -111.81,56.21 -68.77,232.83 2.23,9.42 4.87,19.04 7.7,29.27 1.82,6.38 3.75,12.56 5.77,18.53 m 216.02,122.85 11.35,39.4 c 2.13,7.7 7.29,14.08 14.28,17.92 17.62,9.42 54.59,25.02 102.79,21.68 m -212.17,-54.89 11.24,39.39 c 2.23,7.6 1.22,15.8 -2.63,22.79 -10.03,17.42 -33.12,50.13 -75.65,72.92 m 196.07,-257.24 102.59,33.82 56.21,90.85 m -378.07,-61.68 -69.07,83.25 0.41,106.85 m 241.14,-454.53 46.48,-71.4 -24.2,-84.77 21.67,-82.64 m -283.27,307.57 -77.17,-35.85 -24.21,-84.76 -62.18,-58.64 m 425.06,167.41 82.33,-83.86 21.67,-82.64 m -354.16,238.4 -114.24,-27.44 -62.08,-58.54 m 410.07,113.12 c 4.15,14.49 18.33,23.4 32.91,20.97 92.57,-15.9 183.42,22.18 260.18,0.1 41.93,-12.05 65.53,-35.04 57.73,-62.39 -10.84,-37.98 -68.67,-45.27 -86.59,-58.23 -17.83,-13.07 -53.68,-39.09 -89.43,-28.76 -28.46,8.2 -121.33,64 -163.16,87.8 -11.74,6.69 -17.31,20.56 -13.57,33.63 z m -167.51,48.21 c 4.15,14.38 -3.14,29.57 -16.81,35.14 -87,35.75 -143.82,116.27 -220.58,138.35 -41.93,12.05 -74.14,5.06 -81.94,-22.38 -10.83,-37.88 34.34,-74.75 42.54,-95.31 8.31,-20.55 24.91,-61.57 60.66,-71.9 28.56,-8.21 136.83,-10.13 184.94,-12.15 13.36,-0.51 25.52,8.2 29.26,21.26 z"
         style="fill:none;stroke:#ffffff;stroke-width:50.638;stroke-linecap:round;stroke-linejoin:round;stroke-miterlimit:10;stroke-dasharray:none;stroke-opacity:1"
         id="path74" />
      <path
         d="M 4640.17,6214.62 H 1252.99 m 1947.74,-0.1 c 0,449.26 -49.22,966.99 449.77,1540.72 -595,-449.37 -730.81,-904.1 -730.81,-1540.72 m 63.5,631.36 c -165.28,332.59 -615.56,785.19 -738.1,845.25 337.25,-371.79 674.6,-1059.35 674.6,-1476.61 m -281.14,0 c 0,233.04 -3.65,496.36 66.64,762.81 l -2.44,-4.35 M 2357.5,6214.52 c 0,387.99 86.7,714.61 231.12,969.21 m 71.8,116.98 c 152.42,233.03 346.36,419.28 540.31,582.94 -217.54,-262.5 -350.82,-497.57 -432.35,-713.59 m -376.64,-537.77 c 0,419.48 -540.21,930.42 -540.21,930.42 107.76,-147.15 337.35,-625.99 337.35,-1348.19 m -168.73,0 c 0,475.39 -224.83,866.62 -505.87,1059.25 192.32,-272.84 281.04,-446.73 281.04,-1059.25 m -2.33,191.21 c -91.35,226.05 -334.92,381.2 -334.92,381.2 88.92,-152.42 195.57,-361.15 168.63,-572.41 m 1574.03,372.09 c 0,0 135.81,399.23 566.84,719.26 C 3524,7000.93 3425.56,6613.04 3425.56,6214.52 m 449.77,0 c 0,778.41 182.7,1008.41 618.39,1412.4 -337.35,-513.67 -393.56,-754.41 -393.56,-1412.4 m 12.15,430.63 c 0,0 148.17,259.47 381.41,468.1 -107.76,-176.53 -224.93,-473.47 -224.93,-898.73 m -562.09,0 c 0,0 23.4,302.21 -56.2,545.68 0,0 187.36,-80.31 229.18,-321.05"
         style="fill:none;stroke:#ffffff;stroke-width:50.638;stroke-linecap:round;stroke-linejoin:round;stroke-miterlimit:10;stroke-dasharray:none;stroke-opacity:1"
         id="path76" />
      <path
         d="m 4301.51,7988.33 c 0,0 251.67,80.01 285.8,182.6 17.52,52.87 -15.6,90.34 -62.29,102.8 -113.32,30.08 -192.22,-191.31 -223.51,-285.4 z m 145.33,266.76 c 0,0 -5.47,40.82 -40,49.93 -34.44,9.22 -97.43,-2.83 -123.76,-82.03 -34.74,-104.42 18.43,-234.66 18.43,-234.66 199.41,-52.97 327.93,19.45 348.08,79.91 23.4,70.39 -77.88,73.63 -77.88,73.63 m -270.2,-153.54 c 0,0 -95.3,-93.17 -164.47,-301.09 -42.64,-128.12 -82.24,-313.86 -86.9,-551.35 m -2427.79,747.52 c 77.07,22.08 122.34,69.98 122.34,100.26 0,41.93 -34.73,74.85 -83.75,74.85 -64.51,0 -95.91,-58.34 -111.41,-109.99 -12.15,-40.71 -14.28,-77.07 -14.28,-77.07 m 14.28,77.07 c 0.41,72.62 -36.86,126.09 -69.07,135.51 -44.86,13.06 -90.54,-6.38 -105.63,-47.91 -19.64,-54.68 32.31,-99.55 82.54,-128.31 34.34,-20.26 67.86,-33.02 76.26,-35.65 0.41,0 1.22,-0.31 1.62,-0.71 m -1.62,0.71 c 0.41,0 1.22,-0.31 1.62,-0.71 0,0 -25.52,-28.05 -61.98,-54.59 -46.48,-33.72 -110.59,-64.71 -162.95,-30.68 -39.29,25.42 -45.98,70.28 -18.33,104.31 20.05,24.71 88.31,39.7 165.38,17.32 0.41,-0.41 0.41,-0.41 0.81,-0.41 m 75.86,-37.06 c 0.4,0.4 0.81,0.7 1.21,1.11 0,0 21.78,-29.98 38.59,-68.46 21.78,-49.83 35.55,-114.95 -17.22,-148.98 -39.29,-25.42 -89.22,-17.52 -116.87,16.51 -20.05,24.71 -14.99,87.91 33.52,146.34 m 62.79,53.07 c -0.4,0.41 -0.81,1.11 -0.81,1.52 0,0 39.81,9.72 87.1,11.95 59.55,2.63 131.15,-6.28 150.8,-60.97 15.09,-41.52 -8.81,-81.22 -53.57,-94.29 -32.71,-9.41 -98.44,14.59 -145.74,74.44 0,0 -0.4,0 0,0.41 m 45.17,-81.23 c 0,0 90.74,-178.95 90.74,-612.41"
         style="fill:none;stroke:#ffffff;stroke-width:50.638;stroke-linecap:round;stroke-linejoin:round;stroke-miterlimit:10;stroke-dasharray:none;stroke-opacity:1"
         id="path78" />
    </g>
  </g>
</svg>
