<?xml version="1.0" encoding="UTF-8" standalone="no"?>
<!-- Created with Inkscape (http://www.inkscape.org/) -->

<svg
   version="1.1"
   id="svg2"
   width="1440"
   height="1440"
   viewBox="0 0 1440 1440"
   sodipodi:docname="Biodiversity Net Gain for Kent and Medway Logo_Full Colour Square.eps"
   xmlns:inkscape="http://www.inkscape.org/namespaces/inkscape"
   xmlns:sodipodi="http://sodipodi.sourceforge.net/DTD/sodipodi-0.dtd"
   xmlns="http://www.w3.org/2000/svg"
   xmlns:svg="http://www.w3.org/2000/svg">
  <defs
     id="defs6" />
  <sodipodi:namedview
     id="namedview4"
     pagecolor="#ffffff"
     bordercolor="#000000"
     borderopacity="0.25"
     inkscape:showpageshadow="2"
     inkscape:pageopacity="0.0"
     inkscape:pagecheckerboard="0"
     inkscape:deskcolor="#d1d1d1" />
  <g
     id="g8"
     inkscape:groupmode="layer"
     inkscape:label="ink_ext_XXXXXX"
     transform="matrix(1.3333333,0,0,-1.3333333,0,1440)">
    <g
       id="g10"
       transform="scale(0.1)">
      <path
         d="M 464.316,5495.07 H 1876.44 V 6907.19 H 464.316 V 5495.07"
         style="fill:#447165;fill-opacity:1;fill-rule:nonzero;stroke:none"
         id="path12" />
      <path
         d="M 3441.93,5495.07 H 2029.81 V 6907.19 H 3441.93 V 5495.07"
         style="fill:#b0c0c0;fill-opacity:1;fill-rule:nonzero;stroke:none"
         id="path14" />
      <path
         d="M 464.316,3919.86 H 1876.44 V 5331.98 H 464.316 V 3919.86"
         style="fill:#722c33;fill-opacity:1;fill-rule:nonzero;stroke:none"
         id="path16" />
      <path
         d="M 3441.93,3917.68 H 2029.81 V 5329.81 H 3441.93 V 3917.68"
         style="fill:#18374b;fill-opacity:1;fill-rule:nonzero;stroke:none"
         id="path18" />
      <path
         d="m 3996.8,6099.89 c 16.49,-2.06 38.13,-3.09 66.98,-3.09 81.42,0 153.56,30.92 153.56,116.45 0,80.39 -70.08,113.37 -157.68,113.37 h -62.86 z m 0,319.48 h 64.92 c 87.6,0 137.07,41.22 137.07,99.97 0,64.92 -49.47,94.81 -129.85,94.81 -37.1,0 -58.74,-2.06 -72.14,-5.15 z m -125.74,274.14 c 40.2,8.24 113.37,14.42 184.48,14.42 93.78,0 151.5,-11.33 198.9,-44.31 43.28,-25.77 72.14,-71.11 72.14,-129.85 0,-63.9 -40.19,-122.65 -115.42,-150.47 v -2.06 c 73.17,-18.55 140.16,-76.26 140.16,-172.11 0,-61.83 -26.8,-110.27 -66.99,-143.24 -49.47,-43.29 -130.88,-64.93 -257.65,-64.93 -70.07,0 -123.67,5.15 -155.62,9.27 v 683.28"
         style="fill:#1d1b19;fill-opacity:1;fill-rule:nonzero;stroke:none"
         id="path20" />
      <path
         d="m 4459.53,6008.17 v 501.89 h 127.79 v -501.89 z m 135,642.05 c 0,-38.13 -27.82,-68.02 -72.14,-68.02 -42.25,0 -70.08,29.89 -70.08,68.02 0,39.16 28.86,69.05 71.11,69.05 43.29,0 70.08,-29.89 71.11,-69.05"
         style="fill:#1d1b19;fill-opacity:1;fill-rule:nonzero;stroke:none"
         id="path22" />
      <path
         d="m 4822.3,6258.6 c 0,-96.87 47.4,-170.04 124.7,-170.04 72.14,0 122.63,71.1 122.63,172.1 0,78.33 -35.04,167.99 -121.6,167.99 -89.67,0 -125.73,-86.57 -125.73,-170.05 z m 378.22,5.16 c 0,-184.48 -129.86,-266.93 -257.65,-266.93 -142.22,0 -251.46,97.91 -251.46,258.68 0,164.89 108.21,265.89 259.71,265.89 149.43,0 249.4,-105.12 249.4,-257.64"
         style="fill:#1d1b19;fill-opacity:1;fill-rule:nonzero;stroke:none"
         id="path24" />
      <path
         d="m 5640.58,6300.86 c 0,10.3 -1.03,22.67 -3.09,32.97 -11.33,49.47 -51.53,89.66 -109.24,89.66 -81.41,0 -126.76,-72.14 -126.76,-165.92 0,-91.72 45.35,-158.71 125.73,-158.71 51.53,0 96.88,35.04 109.24,89.66 3.09,11.34 4.12,23.7 4.12,37.1 z m 126.76,439.02 v -590.52 c 0,-51.53 2.06,-107.18 4.13,-141.19 h -113.36 l -5.16,79.36 h -2.06 c -29.89,-55.66 -90.69,-90.7 -163.86,-90.7 -119.55,0 -214.36,102.03 -214.36,256.62 -1.03,167.98 104.08,267.95 224.66,267.95 69.05,0 118.52,-28.86 141.19,-65.96 h 2.06 v 284.44 h 126.76"
         style="fill:#1d1b19;fill-opacity:1;fill-rule:nonzero;stroke:none"
         id="path26" />
      <path
         d="m 5903.39,6008.17 v 501.89 h 127.79 v -501.89 z m 135,642.05 c 0,-38.13 -27.82,-68.02 -72.13,-68.02 -42.26,0 -70.08,29.89 -70.08,68.02 0,39.16 28.85,69.05 71.11,69.05 43.28,0 70.08,-29.89 71.1,-69.05"
         style="fill:#1d1b19;fill-opacity:1;fill-rule:nonzero;stroke:none"
         id="path28" />
      <path
         d="m 6247.6,6510.06 81.42,-254.55 c 14.43,-44.32 24.74,-84.51 34.01,-125.73 h 3.1 c 9.27,41.22 20.6,80.38 34,125.73 l 79.36,254.55 h 133.97 l -191.69,-501.89 h -124.69 l -186.54,501.89 h 137.06"
         style="fill:#1d1b19;fill-opacity:1;fill-rule:nonzero;stroke:none"
         id="path30" />
      <path
         d="m 6988.6,6312.19 c 1.03,46.38 -19.58,122.64 -104.09,122.64 -78.32,0 -111.3,-71.11 -116.46,-122.64 z m -220.55,-88.63 c 3.1,-90.69 74.21,-129.85 154.59,-129.85 58.74,0 101,8.24 139.13,22.67 l 18.55,-87.6 c -43.28,-17.52 -103.06,-30.92 -175.2,-30.92 -162.83,0 -258.67,99.97 -258.67,253.53 0,139.12 84.5,270.01 245.27,270.01 162.84,0 216.43,-133.98 216.43,-244.25 0,-23.7 -2.06,-42.25 -4.13,-53.59 h -335.97"
         style="fill:#1d1b19;fill-opacity:1;fill-rule:nonzero;stroke:none"
         id="path32" />
      <path
         d="m 7210.17,6348.26 c 0,68.02 -1.02,116.46 -4.12,161.8 h 110.27 l 4.12,-95.84 h 4.13 c 24.73,71.11 83.47,107.18 137.07,107.18 12.36,0 19.58,-1.03 29.88,-3.09 v -119.55 c -10.3,2.06 -21.64,4.12 -37.1,4.12 -60.8,0 -102.03,-39.16 -113.36,-95.84 -2.07,-11.34 -4.13,-24.73 -4.13,-39.16 v -259.71 h -126.76 v 340.09"
         style="fill:#1d1b19;fill-opacity:1;fill-rule:nonzero;stroke:none"
         id="path34" />
      <path
         d="m 7570.87,6124.63 c 28.86,-17.52 83.48,-36.07 128.82,-36.07 55.66,0 80.39,22.67 80.39,55.65 0,34 -20.61,51.52 -82.45,73.17 -97.9,34.01 -139.13,87.6 -138.09,146.34 0,88.63 73.17,157.68 189.63,157.68 55.64,0 104.08,-14.43 132.93,-29.89 l -24.72,-89.66 c -21.65,12.37 -61.84,28.86 -106.15,28.86 -45.36,0 -70.08,-21.65 -70.08,-52.56 0,-31.95 23.7,-47.41 87.6,-70.08 90.69,-32.98 132.93,-79.36 133.97,-153.56 0,-90.69 -71.11,-156.65 -204.05,-156.65 -60.81,0 -115.43,14.43 -152.53,35.05 l 24.73,91.72"
         style="fill:#1d1b19;fill-opacity:1;fill-rule:nonzero;stroke:none"
         id="path36" />
      <path
         d="m 8006.81,6008.17 v 501.89 h 127.79 v -501.89 z m 135.01,642.05 c 0,-38.13 -27.83,-68.02 -72.15,-68.02 -42.24,0 -70.07,29.89 -70.07,68.02 0,39.16 28.85,69.05 71.11,69.05 43.28,0 70.08,-29.89 71.11,-69.05"
         style="fill:#1d1b19;fill-opacity:1;fill-rule:nonzero;stroke:none"
         id="path38" />
      <path
         d="m 8415.95,6653.31 v -143.25 h 120.58 v -94.81 h -120.58 v -221.58 c 0,-60.8 16.49,-92.75 64.92,-92.75 21.65,0 38.14,3.1 49.48,6.19 l 2.06,-96.88 c -18.56,-7.21 -51.54,-12.37 -91.72,-12.37 -46.38,0 -85.54,15.46 -109.25,41.23 -26.79,28.86 -39.16,74.2 -39.16,140.15 v 236.01 h -72.14 v 94.81 h 72.14 v 113.36 l 123.67,29.89"
         style="fill:#1d1b19;fill-opacity:1;fill-rule:nonzero;stroke:none"
         id="path40" />
      <path
         d="m 8718.95,6510.06 90.69,-268.98 c 10.31,-30.92 20.61,-69.05 27.83,-97.9 h 3.09 c 8.24,28.85 17.52,65.95 26.79,98.93 l 78.33,267.95 h 136.03 l -125.73,-342.15 c -69.04,-187.57 -115.42,-271.04 -175.19,-322.57 -49.48,-44.32 -101,-60.81 -132.95,-64.93 l -28.86,107.18 c 21.65,5.16 48.44,16.49 74.21,35.04 23.7,15.46 51.52,45.35 69.04,79.36 5.16,9.27 8.25,16.49 8.25,22.67 0,5.15 -1.03,12.37 -7.21,24.73 l -183.45,460.67 h 139.13"
         style="fill:#1d1b19;fill-opacity:1;fill-rule:nonzero;stroke:none"
         id="path42" />
      <path
         d="m 3871.06,4904.4 v 694.61 h 144.29 l 179.32,-297.83 c 46.38,-77.3 86.57,-157.69 118.51,-232.92 h 2.06 c -8.24,92.75 -11.33,182.41 -11.33,288.56 v 242.19 H 4421.4 V 4904.4 h -130.89 l -181.38,305.05 c -44.32,76.27 -90.69,161.81 -124.7,240.13 l -3.09,-1.03 c 5.15,-89.67 6.18,-181.39 6.18,-295.78 V 4904.4 h -116.46"
         style="fill:#1d1b19;fill-opacity:1;fill-rule:nonzero;stroke:none"
         id="path44" />
      <path
         d="m 4872.8,5208.42 c 1.03,46.38 -19.58,122.64 -104.08,122.64 -78.33,0 -111.31,-71.11 -116.46,-122.64 z m -220.54,-88.63 c 3.09,-90.69 74.2,-129.85 154.59,-129.85 58.74,0 100.99,8.24 139.12,22.67 l 18.56,-87.59 c -43.29,-17.52 -103.06,-30.92 -175.2,-30.92 -162.84,0 -258.68,99.96 -258.68,253.51 0,139.13 84.51,270.02 245.28,270.02 162.83,0 216.42,-133.97 216.42,-244.24 0,-23.72 -2.06,-42.26 -4.12,-53.6 h -335.97"
         style="fill:#1d1b19;fill-opacity:1;fill-rule:nonzero;stroke:none"
         id="path46" />
      <path
         d="M 5239.69,5549.54 V 5406.3 h 120.57 v -94.82 h -120.57 v -221.57 c 0,-60.81 16.49,-92.76 64.92,-92.76 21.65,0 38.13,3.09 49.47,6.19 l 2.06,-96.88 c -18.55,-7.22 -51.53,-12.36 -91.72,-12.36 -46.37,0 -85.54,15.46 -109.24,41.22 -26.8,28.86 -39.16,74.2 -39.16,140.16 v 236 h -72.14 v 94.82 h 72.14 v 113.35 l 123.67,29.89"
         style="fill:#1d1b19;fill-opacity:1;fill-rule:nonzero;stroke:none"
         id="path48" />
      <path
         d="m 6231.11,4936.34 c -44.32,-16.48 -130.89,-39.16 -223.64,-39.16 -117.48,0 -206.12,29.9 -272.07,92.76 -61.84,58.74 -97.91,150.47 -96.88,255.58 0,219.52 156.65,360.71 386.47,360.71 85.53,0 152.52,-17.52 184.47,-32.98 l -27.82,-102.03 c -38.14,16.49 -84.51,29.89 -157.68,29.89 -148.41,0 -252.49,-87.61 -252.49,-249.4 0,-157.68 96.88,-251.47 241.15,-251.47 45.34,0 79.36,6.19 95.84,14.43 v 173.14 h -122.63 v 99.97 h 245.28 v -351.44"
         style="fill:#1d1b19;fill-opacity:1;fill-rule:nonzero;stroke:none"
         id="path50" />
      <path
         d="m 6629.94,5149.67 c -89.66,2.07 -175.2,-17.52 -175.2,-93.77 0,-49.47 31.94,-72.14 72.14,-72.14 50.5,0 87.6,32.97 98.94,69.04 3.09,9.28 4.12,19.59 4.12,27.83 z m 16.49,-245.27 -8.25,55.66 h -3.09 c -30.91,-39.17 -83.47,-67 -148.41,-67 -100.99,0 -157.67,73.18 -157.67,149.44 0,126.76 112.33,190.65 297.84,189.63 v 8.24 c 0,32.98 -13.4,87.6 -102.03,87.6 -49.47,0 -101,-15.46 -135.01,-37.1 l -24.73,82.45 c 37.1,22.66 102.02,44.31 181.38,44.31 160.77,0 207.15,-102.03 207.15,-211.27 v -181.38 c 0,-45.34 2.06,-89.66 7.22,-120.58 h -114.4"
         style="fill:#1d1b19;fill-opacity:1;fill-rule:nonzero;stroke:none"
         id="path52" />
      <path
         d="m 6887.59,4904.4 v 501.9 h 127.8 v -501.9 z m 135.01,642.05 c 0,-38.13 -27.83,-68.02 -72.15,-68.02 -42.24,0 -70.07,29.89 -70.07,68.02 0,39.16 28.85,69.05 71.11,69.05 43.28,0 70.08,-29.89 71.11,-69.05"
         style="fill:#1d1b19;fill-opacity:1;fill-rule:nonzero;stroke:none"
         id="path54" />
      <path
         d="m 7151.42,5256.86 c 0,57.71 -1.02,106.14 -4.12,149.44 h 111.3 l 6.19,-75.24 h 3.09 c 21.64,39.16 76.26,86.57 159.73,86.57 87.61,0 178.29,-56.69 178.29,-215.39 V 4904.4 h -126.75 v 283.41 c 0,72.14 -26.8,126.76 -95.84,126.76 -50.5,0 -85.55,-36.07 -98.94,-74.2 -4.13,-11.34 -5.16,-26.8 -5.16,-41.22 V 4904.4 h -127.79 v 352.46"
         style="fill:#1d1b19;fill-opacity:1;fill-rule:nonzero;stroke:none"
         id="path56" />
      <g
         id="g58"
         transform="scale(10)" />
      <path
         d="m 3854.83,4050.08 v 281.12 h -46.97 v 65.47 h 46.97 v 14.94 c 0,44.84 12.1,89.68 41.99,118.14 25.62,24.2 60.49,33.45 90.38,33.45 23.48,0 41.99,-3.56 56.22,-8.55 l -6.4,-67.6 c -9.26,3.56 -21.35,6.4 -37.01,6.4 -43.41,0 -58.35,-36.3 -58.35,-78.99 v -17.79 h 76.14 v -65.47 h -75.44 v -281.12 h -87.53"
         style="fill:#1d1b19;fill-opacity:1;fill-rule:nonzero;stroke:none"
         id="path60" />
      <path
         d="m 4133.07,4223.02 c 0,-66.9 32.74,-117.43 86.11,-117.43 49.82,0 84.69,49.11 84.69,118.85 0,54.09 -24.19,116.01 -83.97,116.01 -61.92,0 -86.83,-59.78 -86.83,-117.43 z m 261.19,3.56 c 0,-127.39 -89.67,-184.33 -177.92,-184.33 -98.21,0 -173.65,67.62 -173.65,178.64 0,113.86 74.73,183.61 179.34,183.61 103.19,0 172.23,-72.6 172.23,-177.92"
         style="fill:#1d1b19;fill-opacity:1;fill-rule:nonzero;stroke:none"
         id="path62" />
      <path
         d="m 4466.12,4284.94 c 0,46.96 -0.71,80.42 -2.84,111.73 h 76.14 l 2.85,-66.19 h 2.85 c 17.08,49.11 57.64,74.02 94.65,74.02 8.54,0 13.52,-0.71 20.64,-2.14 v -82.55 c -7.12,1.42 -14.95,2.84 -25.62,2.84 -41.99,0 -70.46,-27.04 -78.29,-66.18 -1.42,-7.83 -2.84,-17.08 -2.84,-27.05 v -179.34 h -87.54 v 234.86"
         style="fill:#1d1b19;fill-opacity:1;fill-rule:nonzero;stroke:none"
         id="path64" />
      <path
         d="m 4870.31,4529.75 h 86.83 v -220.62 h 2.13 c 11.39,18.5 23.49,35.58 34.88,51.95 l 125.25,168.67 h 108.17 l -165.1,-204.25 175.78,-275.42 h -102.48 l -135.93,219.91 -42.7,-51.24 v -168.67 h -86.83 v 479.67"
         style="fill:#1d1b19;fill-opacity:1;fill-rule:nonzero;stroke:none"
         id="path66" />
      <path
         d="m 5489.44,4260.03 c 0.72,32.03 -13.52,84.68 -71.88,84.68 -54.08,0 -76.85,-49.1 -80.41,-84.68 z m -152.29,-61.21 c 2.13,-62.62 51.24,-89.66 106.75,-89.66 40.56,0 69.74,5.69 96.08,15.65 l 12.8,-60.49 c -29.88,-12.1 -71.16,-21.35 -120.98,-21.35 -112.44,0 -178.63,69.03 -178.63,175.06 0,96.09 58.36,186.47 169.38,186.47 112.44,0 149.45,-92.52 149.45,-168.67 0,-16.37 -1.42,-29.18 -2.85,-37.01 h -232"
         style="fill:#1d1b19;fill-opacity:1;fill-rule:nonzero;stroke:none"
         id="path68" />
      <path
         d="m 5642.44,4293.47 c 0,39.86 -0.72,73.3 -2.85,103.2 h 76.86 l 4.27,-51.96 h 2.13 c 14.95,27.05 52.67,59.79 110.31,59.79 60.5,0 123.12,-39.14 123.12,-148.74 v -205.68 h -87.53 v 195.72 c 0,49.81 -18.51,87.53 -66.19,87.53 -34.87,0 -59.07,-24.91 -68.32,-51.24 -2.85,-7.83 -3.56,-18.51 -3.56,-28.47 v -203.54 h -88.24 v 243.39"
         style="fill:#1d1b19;fill-opacity:1;fill-rule:nonzero;stroke:none"
         id="path70" />
      <path
         d="m 6146.99,4495.59 v -98.92 h 83.27 v -65.47 h -83.27 v -153.01 c 0,-41.99 11.38,-64.05 44.83,-64.05 14.95,0 26.34,2.13 34.16,4.26 l 1.43,-66.89 c -12.81,-4.98 -35.59,-8.54 -63.34,-8.54 -32.02,0 -59.06,10.67 -75.44,28.46 -18.5,19.93 -27.04,51.24 -27.04,96.79 v 162.98 h -49.82 v 65.47 h 49.82 v 78.28 l 85.4,20.64"
         style="fill:#1d1b19;fill-opacity:1;fill-rule:nonzero;stroke:none"
         id="path72" />
      <path
         d="m 6627.35,4219.46 c -61.92,1.43 -120.99,-12.1 -120.99,-64.76 0,-34.16 22.06,-49.82 49.82,-49.82 34.87,0 60.49,22.77 68.32,47.68 2.14,6.41 2.85,13.53 2.85,19.22 z m 11.39,-169.38 -5.71,38.43 h -2.13 c -21.34,-27.04 -57.64,-46.26 -102.48,-46.26 -69.74,0 -108.88,50.53 -108.88,103.2 0,87.53 77.56,131.66 205.67,130.94 v 5.7 c 0,22.77 -9.25,60.49 -70.46,60.49 -34.16,0 -69.74,-10.68 -93.22,-25.62 l -17.08,56.93 c 25.61,15.66 70.45,30.61 125.25,30.61 111.02,0 143.04,-70.46 143.04,-145.9 v -125.25 c 0,-31.31 1.43,-61.92 4.99,-83.27 h -78.99"
         style="fill:#1d1b19;fill-opacity:1;fill-rule:nonzero;stroke:none"
         id="path74" />
      <path
         d="m 6805.25,4293.47 c 0,39.86 -0.71,73.3 -2.85,103.2 h 76.86 l 4.27,-51.96 h 2.14 c 14.94,27.05 52.66,59.79 110.3,59.79 60.5,0 123.13,-39.14 123.13,-148.74 v -205.68 h -87.54 v 195.72 c 0,49.81 -18.51,87.53 -66.18,87.53 -34.88,0 -59.08,-24.91 -68.32,-51.24 -2.86,-7.83 -3.57,-18.51 -3.57,-28.47 v -203.54 h -88.24 v 243.39"
         style="fill:#1d1b19;fill-opacity:1;fill-rule:nonzero;stroke:none"
         id="path76" />
      <path
         d="m 7444.31,4252.19 c 0,7.12 -0.71,15.67 -2.14,22.78 -7.82,34.16 -35.57,61.92 -75.43,61.92 -56.23,0 -87.54,-49.82 -87.54,-114.58 0,-63.34 31.31,-109.6 86.83,-109.6 35.58,0 66.9,24.2 75.44,61.92 2.13,7.83 2.84,16.36 2.84,25.62 z m 87.54,303.18 v -407.79 c 0,-35.58 1.42,-74.01 2.84,-97.5 h -78.28 l -3.55,54.8 h -1.43 c -20.64,-38.43 -62.63,-62.63 -113.15,-62.63 -82.56,0 -148.03,70.46 -148.03,177.21 -0.71,116.01 71.87,185.04 155.14,185.04 47.68,0 81.84,-19.93 97.5,-45.55 h 1.42 v 196.42 h 87.54"
         style="fill:#1d1b19;fill-opacity:1;fill-rule:nonzero;stroke:none"
         id="path78" />
      <path
         d="m 8181.57,4245.8 c -2.85,61.91 -6.41,136.64 -5.7,201.39 h -2.13 c -15.66,-58.36 -35.58,-123.11 -56.94,-183.61 l -69.73,-207.8 h -67.61 l -64.05,204.96 c -18.51,61.2 -35.59,126.68 -48.4,186.45 h -1.42 c -2.14,-62.62 -4.99,-138.77 -8.54,-204.24 l -10.68,-192.87 h -81.84 l 32.03,479.67 h 115.28 l 62.63,-192.86 c 17.08,-56.22 32.03,-113.15 44.13,-166.53 h 2.13 c 12.81,51.95 29.18,111.01 47.68,167.24 l 66.19,192.15 h 113.86 l 27.76,-479.67 h -85.4 l -9.25,195.72"
         style="fill:#1d1b19;fill-opacity:1;fill-rule:nonzero;stroke:none"
         id="path80" />
      <path
         d="m 8579.36,4260.03 c 0.71,32.03 -13.51,84.68 -71.87,84.68 -54.1,0 -76.87,-49.1 -80.42,-84.68 z m -152.29,-61.21 c 2.13,-62.62 51.24,-89.66 106.74,-89.66 40.57,0 69.75,5.69 96.08,15.65 l 12.81,-60.49 c -29.89,-12.1 -71.17,-21.35 -120.99,-21.35 -112.44,0 -178.62,69.03 -178.62,175.06 0,96.09 58.35,186.47 169.38,186.47 112.44,0 149.45,-92.52 149.45,-168.67 0,-16.37 -1.43,-29.18 -2.85,-37.01 h -232"
         style="fill:#1d1b19;fill-opacity:1;fill-rule:nonzero;stroke:none"
         id="path82" />
      <path
         d="m 8964.36,4252.19 c 0,7.12 -0.71,15.67 -2.14,22.78 -7.82,34.16 -35.57,61.92 -75.43,61.92 -56.22,0 -87.54,-49.82 -87.54,-114.58 0,-63.34 31.32,-109.6 86.83,-109.6 35.59,0 66.89,24.2 75.43,61.92 2.14,7.83 2.85,16.36 2.85,25.62 z m 87.54,303.18 v -407.79 c 0,-35.58 1.42,-74.01 2.84,-97.5 h -78.28 l -3.56,54.8 h -1.42 c -20.64,-38.43 -62.63,-62.63 -113.15,-62.63 -82.56,0 -148.03,70.46 -148.03,177.21 -0.71,116.01 71.87,185.04 155.13,185.04 47.69,0 81.85,-19.93 97.5,-45.55 h 1.43 v 196.42 h 87.54"
         style="fill:#1d1b19;fill-opacity:1;fill-rule:nonzero;stroke:none"
         id="path84" />
      <path
         d="m 9198.48,4396.67 36.3,-157.28 c 7.83,-37.01 15.65,-74.73 22.06,-112.45 h 1.43 c 7.12,37.72 18.5,76.15 28.46,111.74 l 44.84,157.99 h 71.17 l 43.41,-153.72 c 10.67,-40.57 19.93,-78.29 27.75,-116.01 h 1.43 c 5.69,37.72 13.52,75.44 22.77,116.01 l 38.43,153.72 h 86.11 l -108.88,-346.59 h -81.14 l -41.27,140.91 c -10.68,36.3 -18.5,69.04 -26.34,111.03 h -1.41 c -7.12,-42.71 -16.38,-76.87 -26.34,-111.03 l -44.12,-140.91 h -81.85 l -102.48,346.59 h 89.67"
         style="fill:#1d1b19;fill-opacity:1;fill-rule:nonzero;stroke:none"
         id="path86" />
      <path
         d="m 9858.89,4219.46 c -61.92,1.43 -120.98,-12.1 -120.98,-64.76 0,-34.16 22.06,-49.82 49.81,-49.82 34.87,0 60.49,22.77 68.32,47.68 2.14,6.41 2.85,13.53 2.85,19.22 z m 11.39,-169.38 -5.7,38.43 h -2.13 c -21.35,-27.04 -57.65,-46.26 -102.48,-46.26 -69.75,0 -108.89,50.53 -108.89,103.2 0,87.53 77.57,131.66 205.67,130.94 v 5.7 c 0,22.77 -9.24,60.49 -70.46,60.49 -34.16,0 -69.74,-10.68 -93.22,-25.62 l -17.08,56.93 c 25.62,15.66 70.45,30.61 125.26,30.61 111.01,0 143.03,-70.46 143.03,-145.9 v -125.25 c 0,-31.31 1.43,-61.92 4.99,-83.27 h -78.99"
         style="fill:#1d1b19;fill-opacity:1;fill-rule:nonzero;stroke:none"
         id="path88" />
      <path
         d="m 10085.2,4396.67 62.6,-185.75 c 7.1,-21.34 14.2,-47.68 19.2,-67.6 h 2.2 c 5.6,19.92 12.1,45.54 18.5,68.32 l 54.1,185.03 h 93.9 l -86.8,-236.27 c -47.7,-129.53 -79.7,-187.17 -121,-222.76 -34.2,-30.6 -69.8,-41.99 -91.8,-44.83 l -20,74.01 c 15,3.56 33.5,11.39 51.3,24.19 16.4,10.68 35.6,31.32 47.7,54.81 3.5,6.4 5.7,11.38 5.7,15.65 0,3.56 -0.7,8.54 -5,17.08 l -126.69,318.12 h 96.09"
         style="fill:#1d1b19;fill-opacity:1;fill-rule:nonzero;stroke:none"
         id="path90" />
      <path
         d="m 674.18,4975.91 c 0,0 23.812,40.66 57.218,46.1 33.399,5.44 63.43,-22.58 67.024,-62.62 m 117.734,55.95 c 0,0 -30.355,31.81 -63.758,26.37 -33.433,-5.45 -57.57,-42.28 -53.976,-82.32"
         style="fill:none;stroke:#ffffff;stroke-width:16.1985;stroke-linecap:round;stroke-linejoin:round;stroke-miterlimit:10;stroke-dasharray:none;stroke-opacity:1"
         id="path92" />
      <path
         d="m 1402.03,5082.36 c 0,0 38.03,46.49 81.09,43.16 43.05,-3.34 75.16,-50.06 71.69,-104.39 m 159.04,37.13 c 0,0 -31.76,51.87 -74.81,55.2 -43.09,3.34 -80.76,-38 -84.23,-92.33"
         style="fill:none;stroke:#ffffff;stroke-width:16.1985;stroke-linecap:round;stroke-linejoin:round;stroke-miterlimit:10;stroke-dasharray:none;stroke-opacity:1"
         id="path94" />
      <path
         d="m 3082.03,5772.61 h -101.04 v -99.17 h 101.04 z m 0,202.81 h -101.04 v -101.96 h 101.04 z m -101.04,-202.81 h -202.13 v -99.17 h 202.13 z m -202.13,0 h -202.13 v -99.17 h 202.13 z m 303.17,100.85 h -202.09 v -100.82 h 202.09 z m -202.09,0 h -202.13 v -100.82 h 202.13 z m 101.05,101.96 h -202.13 v -101.96 h 202.13 z m 101.04,101.4 h -202.09 v -101.4 h 202.09 z M 2936.22,6313 v 100.46 h 117.47 v -186.58 m 27.89,-140.4 v -413.49 h -691.42 v 413.49 m -58.51,80.05 v -78.56 h 67.39 l 336.83,244.07 329.97,-244.07 h 74.28 v 74.51 l -404.25,301.23 z"
         style="fill:none;stroke:#18374b;stroke-width:16.1985;stroke-linecap:round;stroke-linejoin:round;stroke-miterlimit:10;stroke-dasharray:none;stroke-opacity:1"
         id="path96" />
      <path
         d="M 2188.67,5672.98 H 3283.08"
         style="fill:none;stroke:#18374b;stroke-width:16.1985;stroke-linecap:round;stroke-linejoin:round;stroke-miterlimit:10;stroke-dasharray:none;stroke-opacity:1"
         id="path98" />
      <path
         d="m 1314.42,4493.95 c 28.44,-9.07 76.1,-119.96 -12.44,-189.71 -88.54,-69.75 -157.03,13.9 -157.03,13.9 0,0 -78.56,-73.19 -164.544,0.09 -85.98,73.32 -3.078,158.65 -3.078,158.65 0,0 -22.973,27.05 -18.535,98.07 4.473,71.04 64.507,91 64.507,91 0,0 0.65,129.85 122.56,133.41 121.87,3.57 107.59,-126.28 107.59,-126.28 0,0 61.75,-37.55 70.75,-93.34 8.33,-51.61 -9.78,-85.79 -9.78,-85.79"
         style="fill:#722c33;fill-opacity:1;fill-rule:nonzero;stroke:none"
         id="path100" />
      <path
         d="m 1314.42,4493.95 c 28.44,-9.07 76.1,-119.96 -12.44,-189.71 -88.54,-69.75 -157.03,13.9 -157.03,13.9 0,0 -78.56,-73.19 -164.544,0.09 -85.98,73.32 -3.078,158.65 -3.078,158.65 0,0 -22.973,27.05 -18.535,98.07 4.473,71.04 64.507,91 64.507,91 0,0 0.65,129.85 122.56,133.41 121.87,3.57 107.59,-126.28 107.59,-126.28 0,0 61.75,-37.55 70.75,-93.34 8.33,-51.61 -9.78,-85.79 -9.78,-85.79 z"
         style="fill:none;stroke:#ffffff;stroke-width:16.1985;stroke-linecap:round;stroke-linejoin:round;stroke-miterlimit:10;stroke-dasharray:none;stroke-opacity:1"
         id="path102" />
      <path
         d="m 792.367,4799.37 c 0,0 -197.488,-95.21 -201.57,-309.94 -4.082,-214.73 193.797,-228.08 193.797,-228.08 0,0 214.504,9.85 194.254,243.47 -20.215,233.61 -186.481,294.55 -186.481,294.55"
         style="fill:#722c33;fill-opacity:1;fill-rule:nonzero;stroke:none"
         id="path104" />
      <path
         d="m 792.367,4799.37 c 0,0 -197.488,-95.21 -201.57,-309.94 -4.082,-214.73 193.797,-228.08 193.797,-228.08 0,0 214.504,9.85 194.254,243.47 -20.215,233.61 -186.481,294.55 -186.481,294.55 z"
         style="fill:none;stroke:#ffffff;stroke-width:16.1985;stroke-linecap:round;stroke-linejoin:round;stroke-miterlimit:10;stroke-dasharray:none;stroke-opacity:1"
         id="path106" />
      <path
         d="m 1351.52,4561.95 c 0,0 -73.86,-28.77 -73.02,-118.51 0.81,-89.77 71.76,-192.6 231.06,-188.26 159.29,4.38 240.45,82.87 240.45,167.11 0,48.27 -13.15,120.48 -89.55,150.12 0,0 -13.02,119.03 -67.32,123.53 0,0 0.59,119.45 -83.58,122.14 -84.17,2.69 -83.59,-122.33 -83.59,-122.33 0,0 -76.13,-32.72 -74.45,-133.8"
         style="fill:#722c33;fill-opacity:1;fill-rule:nonzero;stroke:none"
         id="path108" />
      <path
         d="m 1351.52,4561.95 c 0,0 -73.86,-28.77 -73.02,-118.51 0.81,-89.77 71.76,-192.6 231.06,-188.26 159.29,4.38 240.45,82.87 240.45,167.11 0,48.27 -13.15,120.48 -89.55,150.12 0,0 -13.02,119.03 -67.32,123.53 0,0 0.59,119.45 -83.58,122.14 -84.17,2.69 -83.59,-122.33 -83.59,-122.33 0,0 -76.13,-32.72 -74.45,-133.8 z"
         style="fill:none;stroke:#ffffff;stroke-width:16.1985;stroke-linecap:round;stroke-linejoin:round;stroke-miterlimit:10;stroke-dasharray:none;stroke-opacity:1"
         id="path110" />
      <path
         d="m 782.652,4566.41 -0.164,-445.2 m 362.552,384.59 v -384.59 m 371.6,233.84 v -233.84 m -854.57,362.81 120.418,-122.94 120.742,122.94 m -250.234,-61.68 65.992,0.23 0.746,71.14 m 123.989,0 v -71.14 l 66.738,-0.23 m 559.009,-92.1 46.16,-41.38 48.21,41.38 m -486.05,101.69 67.25,-68.45 69.04,68.45"
         style="fill:none;stroke:#ffffff;stroke-width:16.1985;stroke-linecap:round;stroke-linejoin:round;stroke-miterlimit:10;stroke-dasharray:none;stroke-opacity:1"
         id="path112" />
      <path
         d="M 626.566,4113.45 H 1714.85"
         style="fill:none;stroke:#ffffff;stroke-width:16.1985;stroke-linecap:round;stroke-linejoin:round;stroke-miterlimit:10;stroke-dasharray:none;stroke-opacity:1"
         id="path114" />
      <path
         d="m 2503.05,6566.07 c -4.8,14.51 2.98,30.23 17.42,35.05 14.42,4.86 30,-3.01 34.83,-17.52 m -20.12,19.27 4.89,12.15 m -33.43,-24.3 -13.02,7.29 m 61.68,-14.41 c 0,0 46.43,12.76 62.23,60.84 6.65,17.52 66.74,96.73 144.98,33.33 -15.32,-5.83 -45.13,-17.94 -44.93,-51.93 -21.54,-1.65 -50.12,-9.17 -45.58,-58.38 -31.3,0.65 -87.41,-15.42 -96.84,-65.15 0.49,-10.95 -12.96,-37.03 -41.53,-17.4 -28.58,19.6 -54.69,42.15 -115.79,-4.76 -13.67,20.44 -24.43,50.9 -68.55,23.59 -14.74,19.56 -39.56,23.58 -69.59,12.11 -2.46,15.33 42.28,103.87 122.85,64.83 0,0 60.84,-30.36 100.5,-14.61 m 87.69,-79.44 -14.7,10.24 m -40.43,-35.18 5.02,17.81"
         style="fill:none;stroke:#18374b;stroke-width:13.704;stroke-linecap:round;stroke-linejoin:round;stroke-miterlimit:10;stroke-dasharray:none;stroke-opacity:1"
         id="path116" />
      <path
         d="m 2537.93,6484.49 c 0,0 -32.55,47.4 -34.89,80.19"
         style="fill:none;stroke:#18374b;stroke-width:13.704;stroke-linecap:round;stroke-linejoin:round;stroke-miterlimit:10;stroke-dasharray:none;stroke-opacity:1"
         id="path118" />
      <path
         d="m 2555.69,6581.83 c 8.94,-11.02 19.44,-83.91 19.44,-83.91"
         style="fill:none;stroke:#18374b;stroke-width:13.704;stroke-linecap:round;stroke-linejoin:round;stroke-miterlimit:10;stroke-dasharray:none;stroke-opacity:1"
         id="path120" />
      <path
         d="m 2542.71,4445.36 c -0.65,-4.8 -1.01,-9.75 -1.01,-14.77 0,-25.21 8.62,-47.85 22.29,-63.54 27.06,13.22 51.32,36.26 71.15,66.29 -32.14,48.76 -76.04,78.85 -124.47,78.85 -66.93,0 -119.74,-65.37 -119.74,-65.37 l -54.26,33.37 13.76,-46.85 -13.76,-46.85 m 0,0 54.26,33.4 c 0,0 50.9,-65.4 119.74,-65.4 3.59,0 12.83,0.48 20.51,1.97"
         style="fill:none;stroke:#ffffff;stroke-width:16.1985;stroke-linecap:round;stroke-linejoin:round;stroke-miterlimit:10;stroke-dasharray:none;stroke-opacity:1"
         id="path122" />
      <path
         d="m 2972.96,4276.97 c -0.87,-6.47 -1.33,-13.12 -1.33,-19.92 0,-33.89 11.47,-64.4 29.74,-85.53 36.1,17.79 68.46,48.79 94.89,89.29 -42.86,65.67 -101.43,106.2 -166.03,106.2 -89.32,0 -159.78,-88.09 -159.78,-88.09 l -72.38,44.97 18.4,-63.08 -18.4,-63.11 m 0,0 72.38,44.97 c 0,0 67.9,-88.06 159.78,-88.06 4.79,0 17.07,0.62 27.34,2.63"
         style="fill:none;stroke:#ffffff;stroke-width:16.1985;stroke-linecap:round;stroke-linejoin:round;stroke-miterlimit:10;stroke-dasharray:none;stroke-opacity:1"
         id="path124" />
      <path
         d="m 3283.08,4641.47 h -1094.4 m 870.9,0 c 11.4,351.96 223.5,374.87 223.5,374.87 -137.62,-48.95 -124.17,-374.87 -124.17,-374.87 m -173.82,0 c 0,0 2.08,272.82 99.33,324.88 0,0 -62.07,-123.92 -24.84,-324.88 m -49.67,524.8 c 0,0 -55.85,-183.27 -24.82,-524.8"
         style="fill:none;stroke:#ffffff;stroke-width:16.1985;stroke-linecap:round;stroke-linejoin:round;stroke-miterlimit:10;stroke-dasharray:none;stroke-opacity:1"
         id="path126" />
      <path
         d="m 3027.23,5102.46 c 3.5,17.4 -5.93,34.76 -21.06,38.78 -15.13,4.02 -30.23,-6.84 -33.73,-24.23 l -10.53,-52.55 c -3.5,-17.4 5.93,-34.76 21.06,-38.78 15.13,-4.02 30.23,6.83 33.7,24.23 l 10.56,52.55"
         style="fill:#18374b;fill-opacity:1;fill-rule:nonzero;stroke:none"
         id="path128" />
      <path
         d="m 3027.23,5102.46 c 3.5,17.4 -5.93,34.76 -21.06,38.78 -15.13,4.02 -30.23,-6.84 -33.73,-24.23 l -10.53,-52.55 c -3.5,-17.4 5.93,-34.76 21.06,-38.78 15.13,-4.02 30.23,6.83 33.7,24.23 z"
         style="fill:none;stroke:#ffffff;stroke-width:16.1985;stroke-linecap:round;stroke-linejoin:round;stroke-miterlimit:10;stroke-dasharray:none;stroke-opacity:1"
         id="path130" />
      <path
         d="m 2295.7,4641.47 c 0,0 11.31,263.88 -104.47,303.5 0,0 178.5,-18.53 188.06,-303.5 m 62.72,0 c 0,0 -1.75,220.88 -83.62,263.03 0,0 52.26,-100.33 20.9,-263.03 m 62.72,0 c 42.47,349.44 -83.62,452.04 -83.62,452.04"
         style="fill:none;stroke:#ffffff;stroke-width:16.1985;stroke-linecap:round;stroke-linejoin:round;stroke-miterlimit:10;stroke-dasharray:none;stroke-opacity:1"
         id="path132" />
      <path
         d="m 2409.84,5051.18 c -7.51,15.55 -24.62,21.19 -38.16,12.57 -13.57,-8.65 -18.47,-28.25 -10.95,-43.8 l 22.71,-46.98 c 7.52,-15.55 24.59,-21.19 38.17,-12.57 13.57,8.62 18.46,28.22 10.94,43.8 l -22.71,46.98"
         style="fill:#18374b;fill-opacity:1;fill-rule:nonzero;stroke:none"
         id="path134" />
      <path
         d="m 2409.84,5051.18 c -7.51,15.55 -24.62,21.19 -38.16,12.57 -13.57,-8.65 -18.47,-28.25 -10.95,-43.8 l 22.71,-46.98 c 7.52,-15.55 24.59,-21.19 38.17,-12.57 13.57,8.62 18.46,28.22 10.94,43.8 z"
         style="fill:none;stroke:#ffffff;stroke-width:16.1985;stroke-linecap:round;stroke-linejoin:round;stroke-miterlimit:10;stroke-dasharray:none;stroke-opacity:1"
         id="path136" />
      <path
         d="m 2574.56,4650.48 c 0,0 -7.06,160.59 65.31,184.73 0,0 -111.57,-11.31 -117.57,-184.73 m -39.17,0 c 0,0 1.11,134.45 52.27,160.07 0,0 -32.66,-61.03 -13.1,-160.07"
         style="fill:none;stroke:#ffffff;stroke-width:16.1985;stroke-linecap:round;stroke-linejoin:round;stroke-miterlimit:10;stroke-dasharray:none;stroke-opacity:1"
         id="path138" />
      <path
         d="m 2919.46,4641.47 c 0,0 7.09,160.59 -65.38,184.73 0,0 111.67,-11.31 117.67,-184.73"
         style="fill:none;stroke:#ffffff;stroke-width:16.1985;stroke-linecap:round;stroke-linejoin:round;stroke-miterlimit:10;stroke-dasharray:none;stroke-opacity:1"
         id="path140" />
      <path
         d="m 997.055,6558.48 c -24.203,31.66 -70.981,84.95 -129.071,92.04 -83.586,10.21 -77.593,-42.27 -52.746,-57.86 24.883,-15.61 54.43,-64.08 60.684,-79.66 9.199,-22.87 25.039,3.63 97.578,16.98 m -98.617,-47.76 c 0,0 -41.012,-73.6 5.41,-79.92 46.426,-6.35 52.289,-18.44 44.742,-37.23 -4.406,-10.98 -14.609,-28.21 -22.293,-40.65 -4.722,-7.62 -0.711,-17.56 8.004,-19.83 6.676,-1.75 13.574,1.75 16.07,8.13 8.844,22.65 31.133,75.16 62.204,116.76 m 37.45,133.64 c 13.19,37.58 41.27,102.73 94.34,127.45 76.29,35.54 86.83,-16.23 68,-38.75 -18.82,-22.52 -31.94,-77.75 -33.08,-94.5 -1.71,-24.62 -25.04,-4.21 -98.35,-14.03 m 108.85,-14.94 c 0,0 61.75,-57.31 19.54,-77.68 -42.19,-20.35 -44.03,-33.7 -31.04,-49.21 7.58,-9.08 22.61,-22.33 33.76,-31.79 6.83,-5.8 6.09,-16.49 -1.49,-21.35 -5.8,-3.69 -13.45,-2.49 -17.79,2.79 -15.55,19.02 -52.61,61.78 -95.6,91.78 m -49.6,250.01 v 0 c -8.13,-1.3 -14.35,-7.84 -15.16,-15.94 l -6.81,-58.12 -23.388,53.33 c -3.269,7.45 -11.242,11.76 -19.339,10.49 m 79.467,-292.38 v 0 c -9.49,-1.49 -18.37,5.05 -19.57,14.48 l -13.99,104.16 c -0.84,6.44 0.81,12.99 4.66,18.3 l 3.99,5.51 -4.54,3.37 c -5.57,4.14 -9.23,10.36 -10.107,17.23 l -6.543,52.52 c -0.809,6.28 3.566,12.08 9.88,13.09 6.32,0.97 12.28,-3.18 13.45,-9.4 l 9.98,-51.99 c 1.26,-6.78 -0.26,-13.81 -4.28,-19.48 l -3.24,-4.63 5.48,-3.98 c 5.31,-3.89 8.94,-9.59 10.13,-16.01 l 18.83,-103.34 c 1.75,-9.37 -4.64,-18.31 -14.13,-19.83 z"
         style="fill:none;stroke:#ffffff;stroke-width:16.1985;stroke-linecap:round;stroke-linejoin:round;stroke-miterlimit:10;stroke-dasharray:none;stroke-opacity:1"
         id="path142" />
      <path
         d="m 1367.63,6472.31 c 1.45,2.56 2.94,4.86 4.44,6.93 9.61,13.48 20.27,17.95 28.86,18.96 6.09,0.68 11.11,-0.36 14.16,-1.23 3.04,-0.88 7.83,-2.66 12.63,-6.48 6.77,-5.41 13.45,-14.87 14.45,-31.4 0.19,-2.52 0.23,-5.28 0.13,-8.23 m -3.56,-22.71 c -0.46,-1.97 -0.98,-3.95 -1.56,-5.99 -0.94,-3.27 -1.84,-6.32 -2.85,-9.26 -18.21,-55.21 -42.92,-55.83 -58.02,-51.48 -15.1,4.34 -35.77,17.98 -22,74.48 0.71,3.01 1.55,6.09 2.46,9.36 0.58,2.04 1.2,4.02 1.85,5.93 m 69.1,39.3 3.63,12.6 c 0.68,2.46 2.33,4.5 4.57,5.73 5.63,3.02 17.46,8 32.88,6.94 m -67.87,-17.56 3.6,12.6 c 0.71,2.43 0.38,5.05 -0.85,7.29 -3.21,5.57 -10.59,16.03 -24.2,23.32 m 62.72,-82.28 32.82,10.82 17.98,29.06 m -120.93,-19.73 -22.1,26.63 0.13,34.18 m 77.14,-145.4 14.86,-22.84 -7.74,-27.12 6.93,-26.43 m -90.61,98.39 -24.68,-11.47 -7.75,-27.12 -19.89,-18.76 m 135.97,53.56 26.34,-26.83 6.93,-26.44 m -113.29,76.27 -36.55,-8.78 -19.85,-18.73 m 131.17,36.19 c 1.33,4.63 5.87,7.48 10.53,6.71 29.61,-5.09 58.67,7.09 83.23,0.03 13.41,-3.86 20.96,-11.21 18.46,-19.96 -3.46,-12.15 -21.96,-14.48 -27.69,-18.63 -5.7,-4.18 -17.17,-12.5 -28.61,-9.2 -9.11,2.63 -38.81,20.48 -52.19,28.09 -3.76,2.14 -5.54,6.58 -4.34,10.76 z M 1375.5,6460 c 1.33,4.6 -1.01,9.46 -5.38,11.24 -27.83,11.44 -46,37.19 -70.56,44.26 -13.41,3.85 -23.72,1.62 -26.21,-7.16 -3.47,-12.12 10.98,-23.91 13.61,-30.49 2.65,-6.58 7.97,-19.7 19.4,-23 9.14,-2.63 43.77,-3.24 59.16,-3.89 4.28,-0.16 8.16,2.63 9.36,6.81 z"
         style="fill:none;stroke:#ffffff;stroke-width:16.1985;stroke-linecap:round;stroke-linejoin:round;stroke-miterlimit:10;stroke-dasharray:none;stroke-opacity:1"
         id="path144" />
      <path
         d="M 1710.06,5673.03 H 626.543 m 623.057,-0.04 c 0,143.72 -15.74,309.33 143.88,492.86 -190.34,-143.74 -233.78,-289.21 -233.78,-492.86 m 20.31,201.97 c -52.87,106.39 -196.905,251.17 -236.108,270.38 107.888,-118.93 215.798,-338.87 215.798,-472.35 m -89.93,0 c 0,74.55 -1.17,158.78 21.31,244.02 l -0.77,-1.39 M 979.863,5672.99 c 0,124.12 27.737,228.6 73.927,310.04 m 22.97,37.42 c 48.76,74.55 110.8,134.13 172.84,186.48 -69.59,-83.97 -112.22,-159.17 -138.3,-228.27 M 990.816,5806.63 c 0,134.19 -172.808,297.63 -172.808,297.63 34.472,-47.07 107.914,-200.24 107.914,-431.27 m -53.973,0 c 0,152.08 -71.922,277.23 -161.82,338.85 61.519,-87.28 89.898,-142.91 89.898,-338.85 m -0.746,61.17 c -29.222,72.31 -107.136,121.94 -107.136,121.94 28.445,-48.75 62.558,-115.53 53.945,-183.11 m 503.51,119.03 c 0,0 43.45,127.71 181.33,230.09 -77.92,-97.55 -109.41,-221.63 -109.41,-349.12 m 143.88,0 c 0,249.01 58.44,322.58 197.82,451.81 -107.92,-164.31 -125.9,-241.32 -125.9,-451.81 m 3.89,137.76 c 0,0 47.39,83 122.01,149.74 -34.47,-56.47 -71.96,-151.46 -71.96,-287.5 m -179.8,0 c 0,0 7.48,96.68 -17.98,174.56 0,0 59.93,-25.69 73.31,-102.7"
         style="fill:none;stroke:#ffffff;stroke-width:16.1985;stroke-linecap:round;stroke-linejoin:round;stroke-miterlimit:10;stroke-dasharray:none;stroke-opacity:1"
         id="path146" />
      <path
         d="m 1601.73,6240.42 c 0,0 80.51,25.59 91.42,58.41 5.61,16.91 -4.99,28.9 -19.92,32.88 -36.25,9.62 -61.49,-61.2 -71.5,-91.29 z m 46.49,85.33 c 0,0 -1.75,13.06 -12.8,15.97 -11.01,2.95 -31.16,-0.91 -39.58,-26.24 -11.12,-33.4 5.89,-75.06 5.89,-75.06 63.79,-16.95 104.9,6.22 111.35,25.56 7.48,22.51 -24.92,23.55 -24.92,23.55 m -86.43,-49.11 c 0,0 -30.48,-29.81 -52.61,-96.32 -13.64,-40.98 -26.31,-100.4 -27.8,-176.37 m -776.625,239.12 c 24.657,7.07 39.137,22.39 39.137,32.08 0,13.41 -11.113,23.94 -26.789,23.94 -20.641,0 -30.68,-18.66 -35.641,-35.19 -3.886,-13.02 -4.566,-24.65 -4.566,-24.65 m 4.566,24.65 c 0.129,23.23 -11.793,40.34 -22.093,43.35 -14.352,4.18 -28.961,-2.04 -33.789,-15.32 -6.286,-17.5 10.335,-31.85 26.406,-41.05 10.98,-6.48 21.703,-10.56 24.39,-11.4 0.129,0 0.387,-0.1 0.52,-0.23 m -0.52,0.23 c 0.129,0 0.387,-0.1 0.52,-0.23 0,0 -8.164,-8.97 -19.828,-17.46 -14.867,-10.79 -35.375,-20.7 -52.125,-9.82 -12.574,8.13 -14.711,22.49 -5.863,33.37 6.414,7.91 28.246,12.7 52.906,5.54 0.125,-0.13 0.125,-0.13 0.258,-0.13 m 24.261,-11.86 c 0.133,0.13 0.258,0.23 0.391,0.36 0,0 6.965,-9.59 12.344,-21.9 6.965,-15.94 11.371,-36.77 -5.508,-47.66 -12.567,-8.13 -28.539,-5.6 -37.387,5.28 -6.418,7.91 -4.797,28.13 10.723,46.82 m 20.086,16.97 c -0.129,0.13 -0.258,0.36 -0.258,0.49 0,0 12.73,3.11 27.859,3.82 19.051,0.85 41.953,-2.01 48.239,-19.5 4.832,-13.28 -2.817,-25.98 -17.137,-30.16 -10.465,-3.01 -31.488,4.66 -46.617,23.81 0,0 -0.133,0 0,0.13 m 14.449,-25.98 c 0,0 29.027,-57.25 29.027,-195.91"
         style="fill:none;stroke:#ffffff;stroke-width:16.1985;stroke-linecap:round;stroke-linejoin:round;stroke-miterlimit:10;stroke-dasharray:none;stroke-opacity:1"
         id="path148" />
    </g>
  </g>
</svg>
